{
	"patcher" : 	{
		"fileversion" : 1,
		"rect" : [ -1406.0, 1046.0, 1663.0, 862.0 ],
		"bgcolor" : [ 0.15, 0.15, 0.13, 1.0 ],
		"bglocked" : 1,
		"defrect" : [ -1406.0, 1046.0, 1663.0, 862.0 ],
		"openrect" : [ 0.0, 0.0, 0.0, 0.0 ],
		"openinpresentation" : 0,
		"default_fontsize" : 12.0,
		"default_fontface" : 0,
		"default_fontname" : "Arial",
		"gridonopen" : 0,
		"gridsize" : [ 15.0, 15.0 ],
		"gridsnaponopen" : 0,
		"toolbarvisible" : 1,
		"boxanimatetime" : 200,
		"imprint" : 0,
		"metadata" : [  ],
		"boxes" : [ 			{
				"box" : 				{
					"maxclass" : "comment",
					"text" : "It was also chosen because it doesn't compete with the default.",
					"linecount" : 2,
					"fontsize" : 14.0,
					"numinlets" : 1,
					"id" : "obj-73",
					"frgb" : [ 1.0, 1.0, 1.0, 0.447059 ],
					"patching_rect" : [ 99.0, 149.0, 269.0, 39.0 ],
					"numoutlets" : 0,
					"textcolor" : [ 1.0, 1.0, 1.0, 0.447059 ],
					"fontname" : "Trebuchet MS",
					"presentation_rect" : [ 99.0, 155.0, 0.0, 0.0 ],
					"fontface" : 2
				}

			}
, 			{
				"box" : 				{
					"maxclass" : "comment",
					"text" : "It was also chosen because it doesn't compete with the default.",
					"linecount" : 2,
					"fontsize" : 14.0,
					"numinlets" : 1,
					"id" : "obj-72",
					"frgb" : [ 1.0, 1.0, 1.0, 0.447059 ],
					"patching_rect" : [ 100.0, 76.0, 269.0, 39.0 ],
					"numoutlets" : 0,
					"textcolor" : [ 1.0, 1.0, 1.0, 0.447059 ],
					"fontname" : "Trebuchet MS",
					"presentation_rect" : [ 100.0, 84.0, 0.0, 0.0 ],
					"fontface" : 2
				}

			}
, 			{
				"box" : 				{
					"maxclass" : "comment",
					"text" : "maw.meta.mawLib",
					"fontsize" : 24.0,
					"numinlets" : 1,
					"id" : "obj-71",
					"frgb" : [ 1.0, 1.0, 1.0, 1.0 ],
					"patching_rect" : [ 100.0, 48.0, 311.0, 34.0 ],
					"numoutlets" : 0,
					"textcolor" : [ 1.0, 1.0, 1.0, 1.0 ],
					"fontname" : "Gill Sans",
					"presentation_rect" : [ 100.0, 48.0, 0.0, 0.0 ]
				}

			}
, 			{
				"box" : 				{
					"maxclass" : "comment",
					"text" : "maw.data.twitter",
					"fontsize" : 24.0,
					"numinlets" : 1,
					"id" : "obj-70",
					"frgb" : [ 1.0, 1.0, 1.0, 1.0 ],
					"patching_rect" : [ 99.0, 120.0, 311.0, 34.0 ],
					"numoutlets" : 0,
					"textcolor" : [ 1.0, 1.0, 1.0, 1.0 ],
					"fontname" : "Gill Sans",
					"presentation_rect" : [ 96.0, 153.0, 0.0, 0.0 ]
				}

			}
, 			{
				"box" : 				{
					"maxclass" : "fpic",
					"numinlets" : 1,
					"id" : "obj-66",
					"patching_rect" : [ 432.0, 32.0, 70.0, 70.0 ],
					"pic" : "maw_logo_lg_dark_small.png",
					"numoutlets" : 0,
					"presentation_rect" : [ 241.0, 41.0, 0.0, 0.0 ]
				}

			}
, 			{
				"box" : 				{
					"maxclass" : "fpic",
					"numinlets" : 1,
					"id" : "obj-65",
					"patching_rect" : [ 23.0, 117.0, 70.0, 70.0 ],
					"pic" : "maw_logo_dg_light_small.png",
					"numoutlets" : 0,
					"presentation_rect" : [ 149.0, 39.0, 0.0, 0.0 ]
				}

			}
, 			{
				"box" : 				{
					"maxclass" : "fpic",
					"numinlets" : 1,
					"id" : "obj-64",
					"patching_rect" : [ 26.0, 45.0, 70.0, 70.0 ],
					"pic" : "MacintoshHD:/Users/bakercp/Programming/mawLib/svn/mawLib/dist/mawLib/mawLib-Support/Meta/Logos/maw_logo_dg_dark_small.png",
					"numoutlets" : 0,
					"presentation_rect" : [ 184.0, 43.0, 0.0, 0.0 ]
				}

			}
, 			{
				"box" : 				{
					"maxclass" : "fpic",
					"numinlets" : 1,
					"id" : "obj-63",
					"patching_rect" : [ 340.0, 35.0, 70.0, 70.0 ],
					"pic" : "maw_logo_lg_light_small.png",
					"numoutlets" : 0,
					"presentation_rect" : [ 391.0, 55.0, 0.0, 0.0 ]
				}

			}
, 			{
				"box" : 				{
					"maxclass" : "comment",
					"text" : "36 Point Georgia",
					"fontsize" : 36.0,
					"numinlets" : 1,
					"id" : "obj-62",
					"frgb" : [ 1.0, 1.0, 1.0, 1.0 ],
					"patching_rect" : [ 349.0, 129.0, 276.0, 47.0 ],
					"numoutlets" : 0,
					"textcolor" : [ 1.0, 1.0, 1.0, 1.0 ],
					"fontname" : "Georgia",
					"presentation_rect" : [ 349.0, 129.0, 0.0, 0.0 ]
				}

			}
, 			{
				"box" : 				{
					"maxclass" : "fpic",
					"numinlets" : 1,
					"id" : "obj-61",
					"patching_rect" : [ 331.0, 101.0, 399.0, 20.0 ],
					"pic" : "maw_name_lg_light.png",
					"numoutlets" : 0,
					"presentation_rect" : [ 441.0, 36.0, 0.0, 0.0 ]
				}

			}
, 			{
				"box" : 				{
					"maxclass" : "fpic",
					"numinlets" : 1,
					"id" : "obj-56",
					"patching_rect" : [ 1424.0, 32.0, 135.0, 142.0 ],
					"pic" : "MacintoshHD:/Users/bakercp/Programming/mawLib/svn/mawLib/dist/mawLib/mawLib-Support/Meta/Logos/maw_logo.png",
					"numoutlets" : 0,
					"presentation_rect" : [ 1424.0, 32.0, 0.0, 0.0 ]
				}

			}
, 			{
				"box" : 				{
					"maxclass" : "fpic",
					"numinlets" : 1,
					"id" : "obj-55",
					"patching_rect" : [ 1112.0, 34.0, 135.0, 142.0 ],
					"pic" : "MacintoshHD:/Users/bakercp/Programming/mawLib/svn/mawLib/dist/mawLib/mawLib-Support/Meta/Logos/maw_logo.png",
					"numoutlets" : 0,
					"presentation_rect" : [ 1112.0, 34.0, 0.0, 0.0 ]
				}

			}
, 			{
				"box" : 				{
					"maxclass" : "fpic",
					"numinlets" : 1,
					"id" : "obj-54",
					"patching_rect" : [ 789.0, 33.0, 135.0, 142.0 ],
					"pic" : "MacintoshHD:/Users/bakercp/Programming/mawLib/svn/mawLib/dist/mawLib/mawLib-Support/Meta/Logos/maw_logo.png",
					"numoutlets" : 0,
					"presentation_rect" : [ 789.0, 33.0, 0.0, 0.0 ]
				}

			}
, 			{
				"box" : 				{
					"maxclass" : "fpic",
					"numinlets" : 1,
					"id" : "obj-28",
					"patching_rect" : [ 1267.0, 30.0, 135.0, 142.0 ],
					"pic" : "MacintoshHD:/Users/bakercp/Programming/mawLib/svn/mawLib/dist/mawLib/mawLib-Support/Meta/Logos/maw_logo.png",
					"numoutlets" : 0,
					"presentation_rect" : [ 1267.0, 30.0, 0.0, 0.0 ]
				}

			}
, 			{
				"box" : 				{
					"maxclass" : "fpic",
					"numinlets" : 1,
					"id" : "obj-27",
					"patching_rect" : [ 963.0, 31.0, 135.0, 142.0 ],
					"pic" : "MacintoshHD:/Users/bakercp/Programming/mawLib/svn/mawLib/dist/mawLib/mawLib-Support/Meta/Logos/maw_logo.png",
					"numoutlets" : 0,
					"presentation_rect" : [ 963.0, 31.0, 0.0, 0.0 ]
				}

			}
, 			{
				"box" : 				{
					"maxclass" : "fpic",
					"numinlets" : 1,
					"id" : "obj-26",
					"patching_rect" : [ 645.0, 32.0, 135.0, 142.0 ],
					"pic" : "MacintoshHD:/Users/bakercp/Programming/mawLib/svn/mawLib/dist/mawLib/mawLib-Support/Meta/Logos/maw_logo.png",
					"numoutlets" : 0,
					"presentation_rect" : [ 645.0, 32.0, 0.0, 0.0 ]
				}

			}
, 			{
				"box" : 				{
					"maxclass" : "comment",
					"text" : "12 Point Trebuchet MS",
					"fontsize" : 14.0,
					"numinlets" : 1,
					"id" : "obj-67",
					"frgb" : [ 0.14902, 0.14902, 0.129412, 1.0 ],
					"patching_rect" : [ 60.0, 376.0, 189.0, 23.0 ],
					"numoutlets" : 0,
					"textcolor" : [ 0.14902, 0.14902, 0.129412, 1.0 ],
					"fontname" : "Trebuchet MS"
				}

			}
, 			{
				"box" : 				{
					"maxclass" : "comment",
					"text" : "36 Point Georgia",
					"fontsize" : 36.0,
					"numinlets" : 1,
					"id" : "obj-68",
					"frgb" : [ 0.14902, 0.14902, 0.129412, 1.0 ],
					"patching_rect" : [ 32.0, 334.0, 276.0, 47.0 ],
					"numoutlets" : 0,
					"textcolor" : [ 0.14902, 0.14902, 0.129412, 1.0 ],
					"fontname" : "Georgia"
				}

			}
, 			{
				"box" : 				{
					"maxclass" : "comment",
					"text" : "Christopher Baker <info@christopherbaker.net>",
					"fontsize" : 14.0,
					"numinlets" : 1,
					"id" : "obj-1",
					"frgb" : [ 0.584314, 0.584314, 0.584314, 1.0 ],
					"patching_rect" : [ 1279.0, 829.0, 312.0, 23.0 ],
					"numoutlets" : 0,
					"textcolor" : [ 0.584314, 0.584314, 0.584314, 1.0 ],
					"fontname" : "Trebuchet MS"
				}

			}
, 			{
				"box" : 				{
					"maxclass" : "comment",
					"text" : "HEX #262621",
					"fontsize" : 14.0,
					"numinlets" : 1,
					"id" : "obj-188",
					"frgb" : [ 0.584314, 0.584314, 0.584314, 1.0 ],
					"patching_rect" : [ 1493.0, 686.0, 93.0, 23.0 ],
					"numoutlets" : 0,
					"textcolor" : [ 0.584314, 0.584314, 0.584314, 1.0 ],
					"fontname" : "Trebuchet MS"
				}

			}
, 			{
				"box" : 				{
					"maxclass" : "comment",
					"text" : "HEX #424B59",
					"fontsize" : 14.0,
					"numinlets" : 1,
					"id" : "obj-187",
					"frgb" : [ 0.584314, 0.584314, 0.584314, 1.0 ],
					"patching_rect" : [ 1154.0, 686.0, 93.0, 23.0 ],
					"numoutlets" : 0,
					"textcolor" : [ 0.584314, 0.584314, 0.584314, 1.0 ],
					"fontname" : "Trebuchet MS"
				}

			}
, 			{
				"box" : 				{
					"maxclass" : "comment",
					"text" : "HEX #1D2035",
					"fontsize" : 14.0,
					"numinlets" : 1,
					"id" : "obj-186",
					"frgb" : [ 0.584314, 0.584314, 0.584314, 1.0 ],
					"patching_rect" : [ 842.0, 686.0, 93.0, 23.0 ],
					"numoutlets" : 0,
					"textcolor" : [ 0.584314, 0.584314, 0.584314, 1.0 ],
					"fontname" : "Trebuchet MS"
				}

			}
, 			{
				"box" : 				{
					"maxclass" : "comment",
					"text" : "HEX #738C3D",
					"fontsize" : 14.0,
					"numinlets" : 1,
					"id" : "obj-185",
					"frgb" : [ 0.584314, 0.584314, 0.584314, 1.0 ],
					"patching_rect" : [ 528.0, 686.0, 93.0, 23.0 ],
					"numoutlets" : 0,
					"textcolor" : [ 0.584314, 0.584314, 0.584314, 1.0 ],
					"fontname" : "Trebuchet MS"
				}

			}
, 			{
				"box" : 				{
					"maxclass" : "comment",
					"text" : "HEX #535942",
					"fontsize" : 14.0,
					"numinlets" : 1,
					"id" : "obj-183",
					"frgb" : [ 0.584314, 0.584314, 0.584314, 1.0 ],
					"patching_rect" : [ 220.0, 686.0, 93.0, 23.0 ],
					"numoutlets" : 0,
					"textcolor" : [ 0.584314, 0.584314, 0.584314, 1.0 ],
					"fontname" : "Trebuchet MS"
				}

			}
, 			{
				"box" : 				{
					"maxclass" : "comment",
					"text" : "Rounded corners are embraced minimally to preserve a graphic relatoinship with the inescapable roundedness of Max5.",
					"linecount" : 3,
					"fontsize" : 14.0,
					"numinlets" : 1,
					"id" : "obj-182",
					"frgb" : [ 0.584314, 0.584314, 0.584314, 1.0 ],
					"patching_rect" : [ 342.0, 788.0, 296.0, 55.0 ],
					"numoutlets" : 0,
					"textcolor" : [ 0.584314, 0.584314, 0.584314, 1.0 ],
					"fontname" : "Trebuchet MS"
				}

			}
, 			{
				"box" : 				{
					"maxclass" : "comment",
					"text" : "Every combination on this sampler template won't be used, just a sub-set of the most contrasty and best looking.",
					"linecount" : 3,
					"fontsize" : 14.0,
					"numinlets" : 1,
					"id" : "obj-181",
					"frgb" : [ 0.584314, 0.584314, 0.584314, 1.0 ],
					"patching_rect" : [ 1277.0, 728.0, 294.0, 55.0 ],
					"numoutlets" : 0,
					"textcolor" : [ 0.584314, 0.584314, 0.584314, 1.0 ],
					"fontname" : "Trebuchet MS"
				}

			}
, 			{
				"box" : 				{
					"maxclass" : "comment",
					"text" : "Fonts are cross-platform for Windows and Mac.  Headers and titles get a serif font (Georgia) and subtitles and text blocks take a sans serif (Trebuchet) for better readability.",
					"linecount" : 5,
					"fontsize" : 14.0,
					"numinlets" : 1,
					"id" : "obj-180",
					"frgb" : [ 0.584314, 0.584314, 0.584314, 1.0 ],
					"patching_rect" : [ 968.0, 728.0, 278.0, 88.0 ],
					"numoutlets" : 0,
					"textcolor" : [ 0.584314, 0.584314, 0.584314, 1.0 ],
					"fontname" : "Trebuchet MS"
				}

			}
, 			{
				"box" : 				{
					"maxclass" : "comment",
					"text" : "Bright whites are used sparingly to keep the overall look pretty dim, but contrast is preserved for better visibility at night.",
					"linecount" : 3,
					"fontsize" : 14.0,
					"numinlets" : 1,
					"id" : "obj-179",
					"frgb" : [ 0.584314, 0.584314, 0.584314, 1.0 ],
					"patching_rect" : [ 343.0, 728.0, 293.0, 55.0 ],
					"numoutlets" : 0,
					"textcolor" : [ 0.584314, 0.584314, 0.584314, 1.0 ],
					"fontname" : "Trebuchet MS"
				}

			}
, 			{
				"box" : 				{
					"maxclass" : "number",
					"fontsize" : 12.0,
					"numinlets" : 1,
					"id" : "obj-164",
					"patching_rect" : [ 1321.0, 560.0, 50.0, 20.0 ],
					"numoutlets" : 2,
					"outlettype" : [ "int", "bang" ],
					"fontname" : "Arial"
				}

			}
, 			{
				"box" : 				{
					"maxclass" : "number",
					"fontsize" : 12.0,
					"numinlets" : 1,
					"id" : "obj-165",
					"patching_rect" : [ 1321.0, 537.0, 50.0, 20.0 ],
					"numoutlets" : 2,
					"outlettype" : [ "int", "bang" ],
					"fontname" : "Arial"
				}

			}
, 			{
				"box" : 				{
					"maxclass" : "scope~",
					"numinlets" : 2,
					"id" : "obj-166",
					"patching_rect" : [ 1321.0, 584.0, 100.0, 95.0 ],
					"numoutlets" : 0
				}

			}
, 			{
				"box" : 				{
					"maxclass" : "jit.fpsgui",
					"fontsize" : 12.0,
					"numinlets" : 1,
					"id" : "obj-167",
					"patching_rect" : [ 1434.0, 584.0, 67.0, 36.0 ],
					"numoutlets" : 2,
					"outlettype" : [ "", "" ],
					"fontname" : "Arial"
				}

			}
, 			{
				"box" : 				{
					"maxclass" : "incdec",
					"numinlets" : 1,
					"id" : "obj-168",
					"patching_rect" : [ 1402.0, 490.0, 20.0, 20.0 ],
					"numoutlets" : 1,
					"outlettype" : [ "float" ]
				}

			}
, 			{
				"box" : 				{
					"maxclass" : "button",
					"numinlets" : 1,
					"id" : "obj-169",
					"patching_rect" : [ 1376.0, 490.0, 20.0, 20.0 ],
					"numoutlets" : 1,
					"outlettype" : [ "bang" ]
				}

			}
, 			{
				"box" : 				{
					"maxclass" : "preset",
					"numinlets" : 1,
					"id" : "obj-170",
					"patching_rect" : [ 1432.0, 623.0, 68.0, 45.0 ],
					"numoutlets" : 4,
					"outlettype" : [ "preset", "int", "preset", "int" ]
				}

			}
, 			{
				"box" : 				{
					"maxclass" : "dial",
					"numinlets" : 1,
					"id" : "obj-171",
					"patching_rect" : [ 1321.0, 488.0, 40.0, 40.0 ],
					"numoutlets" : 1,
					"outlettype" : [ "float" ]
				}

			}
, 			{
				"box" : 				{
					"maxclass" : "slider",
					"numinlets" : 1,
					"id" : "obj-172",
					"patching_rect" : [ 1428.0, 490.0, 78.0, 22.0 ],
					"numoutlets" : 1,
					"outlettype" : [ "" ]
				}

			}
, 			{
				"box" : 				{
					"maxclass" : "newobj",
					"text" : "pack 0 0",
					"fontsize" : 12.0,
					"numinlets" : 2,
					"id" : "obj-173",
					"patching_rect" : [ 1437.0, 558.0, 56.0, 20.0 ],
					"numoutlets" : 1,
					"outlettype" : [ "" ],
					"fontname" : "Arial"
				}

			}
, 			{
				"box" : 				{
					"maxclass" : "newobj",
					"text" : "pack 0 0",
					"fontsize" : 12.0,
					"numinlets" : 2,
					"id" : "obj-174",
					"patching_rect" : [ 1372.0, 558.0, 56.0, 20.0 ],
					"numoutlets" : 1,
					"outlettype" : [ "" ],
					"fontname" : "Arial"
				}

			}
, 			{
				"box" : 				{
					"maxclass" : "newobj",
					"text" : "unpack 0 0 0 0",
					"fontsize" : 12.0,
					"numinlets" : 1,
					"id" : "obj-175",
					"patching_rect" : [ 1372.0, 517.0, 89.0, 20.0 ],
					"numoutlets" : 4,
					"outlettype" : [ "int", "int", "int", "int" ],
					"fontname" : "Arial"
				}

			}
, 			{
				"box" : 				{
					"maxclass" : "number",
					"fontsize" : 12.0,
					"numinlets" : 1,
					"id" : "obj-152",
					"patching_rect" : [ 1005.0, 554.0, 50.0, 20.0 ],
					"numoutlets" : 2,
					"outlettype" : [ "int", "bang" ],
					"fontname" : "Arial"
				}

			}
, 			{
				"box" : 				{
					"maxclass" : "number",
					"fontsize" : 12.0,
					"numinlets" : 1,
					"id" : "obj-153",
					"patching_rect" : [ 1005.0, 531.0, 50.0, 20.0 ],
					"numoutlets" : 2,
					"outlettype" : [ "int", "bang" ],
					"fontname" : "Arial"
				}

			}
, 			{
				"box" : 				{
					"maxclass" : "scope~",
					"numinlets" : 2,
					"id" : "obj-154",
					"patching_rect" : [ 1005.0, 578.0, 100.0, 95.0 ],
					"numoutlets" : 0
				}

			}
, 			{
				"box" : 				{
					"maxclass" : "jit.fpsgui",
					"fontsize" : 12.0,
					"numinlets" : 1,
					"id" : "obj-155",
					"patching_rect" : [ 1118.0, 578.0, 67.0, 36.0 ],
					"numoutlets" : 2,
					"outlettype" : [ "", "" ],
					"fontname" : "Arial"
				}

			}
, 			{
				"box" : 				{
					"maxclass" : "incdec",
					"numinlets" : 1,
					"id" : "obj-156",
					"patching_rect" : [ 1086.0, 484.0, 20.0, 20.0 ],
					"numoutlets" : 1,
					"outlettype" : [ "float" ]
				}

			}
, 			{
				"box" : 				{
					"maxclass" : "button",
					"numinlets" : 1,
					"id" : "obj-157",
					"patching_rect" : [ 1060.0, 484.0, 20.0, 20.0 ],
					"numoutlets" : 1,
					"outlettype" : [ "bang" ]
				}

			}
, 			{
				"box" : 				{
					"maxclass" : "preset",
					"numinlets" : 1,
					"id" : "obj-158",
					"patching_rect" : [ 1116.0, 617.0, 68.0, 45.0 ],
					"numoutlets" : 4,
					"outlettype" : [ "preset", "int", "preset", "int" ]
				}

			}
, 			{
				"box" : 				{
					"maxclass" : "dial",
					"numinlets" : 1,
					"id" : "obj-159",
					"patching_rect" : [ 1005.0, 482.0, 40.0, 40.0 ],
					"numoutlets" : 1,
					"outlettype" : [ "float" ]
				}

			}
, 			{
				"box" : 				{
					"maxclass" : "slider",
					"numinlets" : 1,
					"id" : "obj-160",
					"patching_rect" : [ 1112.0, 484.0, 78.0, 22.0 ],
					"numoutlets" : 1,
					"outlettype" : [ "" ]
				}

			}
, 			{
				"box" : 				{
					"maxclass" : "newobj",
					"text" : "pack 0 0",
					"fontsize" : 12.0,
					"numinlets" : 2,
					"id" : "obj-161",
					"patching_rect" : [ 1121.0, 552.0, 56.0, 20.0 ],
					"numoutlets" : 1,
					"outlettype" : [ "" ],
					"fontname" : "Arial"
				}

			}
, 			{
				"box" : 				{
					"maxclass" : "newobj",
					"text" : "pack 0 0",
					"fontsize" : 12.0,
					"numinlets" : 2,
					"id" : "obj-162",
					"patching_rect" : [ 1056.0, 552.0, 56.0, 20.0 ],
					"numoutlets" : 1,
					"outlettype" : [ "" ],
					"fontname" : "Arial"
				}

			}
, 			{
				"box" : 				{
					"maxclass" : "newobj",
					"text" : "unpack 0 0 0 0",
					"fontsize" : 12.0,
					"numinlets" : 1,
					"id" : "obj-163",
					"patching_rect" : [ 1056.0, 511.0, 89.0, 20.0 ],
					"numoutlets" : 4,
					"outlettype" : [ "int", "int", "int", "int" ],
					"fontname" : "Arial"
				}

			}
, 			{
				"box" : 				{
					"maxclass" : "number",
					"fontsize" : 12.0,
					"numinlets" : 1,
					"id" : "obj-140",
					"patching_rect" : [ 697.0, 552.0, 50.0, 20.0 ],
					"numoutlets" : 2,
					"outlettype" : [ "int", "bang" ],
					"fontname" : "Arial"
				}

			}
, 			{
				"box" : 				{
					"maxclass" : "number",
					"fontsize" : 12.0,
					"numinlets" : 1,
					"id" : "obj-141",
					"patching_rect" : [ 697.0, 529.0, 50.0, 20.0 ],
					"numoutlets" : 2,
					"outlettype" : [ "int", "bang" ],
					"fontname" : "Arial"
				}

			}
, 			{
				"box" : 				{
					"maxclass" : "scope~",
					"numinlets" : 2,
					"id" : "obj-142",
					"patching_rect" : [ 697.0, 576.0, 100.0, 95.0 ],
					"numoutlets" : 0
				}

			}
, 			{
				"box" : 				{
					"maxclass" : "jit.fpsgui",
					"fontsize" : 12.0,
					"numinlets" : 1,
					"id" : "obj-143",
					"patching_rect" : [ 810.0, 576.0, 67.0, 36.0 ],
					"numoutlets" : 2,
					"outlettype" : [ "", "" ],
					"fontname" : "Arial"
				}

			}
, 			{
				"box" : 				{
					"maxclass" : "incdec",
					"numinlets" : 1,
					"id" : "obj-144",
					"patching_rect" : [ 778.0, 482.0, 20.0, 20.0 ],
					"numoutlets" : 1,
					"outlettype" : [ "float" ]
				}

			}
, 			{
				"box" : 				{
					"maxclass" : "button",
					"numinlets" : 1,
					"id" : "obj-145",
					"patching_rect" : [ 752.0, 482.0, 20.0, 20.0 ],
					"numoutlets" : 1,
					"outlettype" : [ "bang" ]
				}

			}
, 			{
				"box" : 				{
					"maxclass" : "preset",
					"numinlets" : 1,
					"id" : "obj-146",
					"patching_rect" : [ 808.0, 615.0, 68.0, 45.0 ],
					"numoutlets" : 4,
					"outlettype" : [ "preset", "int", "preset", "int" ]
				}

			}
, 			{
				"box" : 				{
					"maxclass" : "dial",
					"numinlets" : 1,
					"id" : "obj-147",
					"patching_rect" : [ 697.0, 480.0, 40.0, 40.0 ],
					"numoutlets" : 1,
					"outlettype" : [ "float" ]
				}

			}
, 			{
				"box" : 				{
					"maxclass" : "slider",
					"numinlets" : 1,
					"id" : "obj-148",
					"patching_rect" : [ 804.0, 482.0, 78.0, 22.0 ],
					"numoutlets" : 1,
					"outlettype" : [ "" ]
				}

			}
, 			{
				"box" : 				{
					"maxclass" : "newobj",
					"text" : "pack 0 0",
					"fontsize" : 12.0,
					"numinlets" : 2,
					"id" : "obj-149",
					"patching_rect" : [ 813.0, 550.0, 56.0, 20.0 ],
					"numoutlets" : 1,
					"outlettype" : [ "" ],
					"fontname" : "Arial"
				}

			}
, 			{
				"box" : 				{
					"maxclass" : "newobj",
					"text" : "pack 0 0",
					"fontsize" : 12.0,
					"numinlets" : 2,
					"id" : "obj-150",
					"patching_rect" : [ 748.0, 550.0, 56.0, 20.0 ],
					"numoutlets" : 1,
					"outlettype" : [ "" ],
					"fontname" : "Arial"
				}

			}
, 			{
				"box" : 				{
					"maxclass" : "newobj",
					"text" : "unpack 0 0 0 0",
					"fontsize" : 12.0,
					"numinlets" : 1,
					"id" : "obj-151",
					"patching_rect" : [ 748.0, 509.0, 89.0, 20.0 ],
					"numoutlets" : 4,
					"outlettype" : [ "int", "int", "int", "int" ],
					"fontname" : "Arial"
				}

			}
, 			{
				"box" : 				{
					"maxclass" : "number",
					"fontsize" : 12.0,
					"numinlets" : 1,
					"id" : "obj-128",
					"patching_rect" : [ 375.0, 550.0, 50.0, 20.0 ],
					"numoutlets" : 2,
					"outlettype" : [ "int", "bang" ],
					"fontname" : "Arial"
				}

			}
, 			{
				"box" : 				{
					"maxclass" : "number",
					"fontsize" : 12.0,
					"numinlets" : 1,
					"id" : "obj-129",
					"patching_rect" : [ 375.0, 527.0, 50.0, 20.0 ],
					"numoutlets" : 2,
					"outlettype" : [ "int", "bang" ],
					"fontname" : "Arial"
				}

			}
, 			{
				"box" : 				{
					"maxclass" : "scope~",
					"numinlets" : 2,
					"id" : "obj-130",
					"patching_rect" : [ 375.0, 574.0, 100.0, 95.0 ],
					"numoutlets" : 0
				}

			}
, 			{
				"box" : 				{
					"maxclass" : "jit.fpsgui",
					"fontsize" : 12.0,
					"numinlets" : 1,
					"id" : "obj-131",
					"patching_rect" : [ 488.0, 574.0, 67.0, 36.0 ],
					"numoutlets" : 2,
					"outlettype" : [ "", "" ],
					"fontname" : "Arial"
				}

			}
, 			{
				"box" : 				{
					"maxclass" : "incdec",
					"numinlets" : 1,
					"id" : "obj-132",
					"patching_rect" : [ 456.0, 480.0, 20.0, 20.0 ],
					"numoutlets" : 1,
					"outlettype" : [ "float" ]
				}

			}
, 			{
				"box" : 				{
					"maxclass" : "button",
					"numinlets" : 1,
					"id" : "obj-133",
					"patching_rect" : [ 430.0, 480.0, 20.0, 20.0 ],
					"numoutlets" : 1,
					"outlettype" : [ "bang" ]
				}

			}
, 			{
				"box" : 				{
					"maxclass" : "preset",
					"numinlets" : 1,
					"id" : "obj-134",
					"patching_rect" : [ 486.0, 613.0, 68.0, 45.0 ],
					"numoutlets" : 4,
					"outlettype" : [ "preset", "int", "preset", "int" ],
					"preset_data" : [ 						{
							"number" : 2,
							"data" : [ 5, "obj-97", "slider", "float", 0.0, 5, "obj-105", "dial", "int", 0, 5, "obj-121", "incdec", "float", 0.0, 5, "obj-124", "number", "int", 0, 5, "obj-126", "number", "int", 0, 5, "obj-136", "slider", "float", 0.0, 5, "obj-135", "dial", "int", 0, 5, "obj-132", "incdec", "float", 0.0, 5, "obj-129", "number", "int", 0, 5, "obj-128", "number", "int", 0, 5, "obj-148", "slider", "float", 0.0, 5, "obj-147", "dial", "int", 0, 5, "obj-144", "incdec", "float", 0.0, 5, "obj-141", "number", "int", 0, 5, "obj-140", "number", "int", 0, 5, "obj-160", "slider", "float", 0.0, 5, "obj-159", "dial", "int", 0, 5, "obj-156", "incdec", "float", 0.0, 5, "obj-153", "number", "int", 0, 5, "obj-152", "number", "int", 0, 5, "obj-172", "slider", "float", 0.0, 5, "obj-171", "dial", "int", 0, 5, "obj-168", "incdec", "float", 0.0, 5, "obj-165", "number", "int", 0, 5, "obj-164", "number", "int", 0 ]
						}
, 						{
							"number" : 8,
							"data" : [ 5, "obj-97", "slider", "float", 0.0, 5, "obj-105", "dial", "int", 0, 5, "obj-121", "incdec", "float", 0.0, 5, "obj-124", "number", "int", 0, 5, "obj-126", "number", "int", 0, 5, "obj-136", "slider", "float", 0.0, 5, "obj-135", "dial", "int", 0, 5, "obj-132", "incdec", "float", 0.0, 5, "obj-129", "number", "int", 0, 5, "obj-128", "number", "int", 0, 5, "obj-148", "slider", "float", 0.0, 5, "obj-147", "dial", "int", 0, 5, "obj-144", "incdec", "float", 0.0, 5, "obj-141", "number", "int", 0, 5, "obj-140", "number", "int", 0, 5, "obj-160", "slider", "float", 0.0, 5, "obj-159", "dial", "int", 0, 5, "obj-156", "incdec", "float", 0.0, 5, "obj-153", "number", "int", 0, 5, "obj-152", "number", "int", 0, 5, "obj-172", "slider", "float", 0.0, 5, "obj-171", "dial", "int", 0, 5, "obj-168", "incdec", "float", 0.0, 5, "obj-165", "number", "int", 0, 5, "obj-164", "number", "int", 0 ]
						}
, 						{
							"number" : 9,
							"data" : [ 5, "obj-97", "slider", "float", 0.0, 5, "obj-105", "dial", "int", 0, 5, "obj-121", "incdec", "float", 0.0, 5, "obj-124", "number", "int", 0, 5, "obj-126", "number", "int", 0, 5, "obj-136", "slider", "float", 0.0, 5, "obj-135", "dial", "int", 0, 5, "obj-132", "incdec", "float", 0.0, 5, "obj-129", "number", "int", 0, 5, "obj-128", "number", "int", 0, 5, "obj-148", "slider", "float", 0.0, 5, "obj-147", "dial", "int", 0, 5, "obj-144", "incdec", "float", 0.0, 5, "obj-141", "number", "int", 0, 5, "obj-140", "number", "int", 0, 5, "obj-160", "slider", "float", 0.0, 5, "obj-159", "dial", "int", 0, 5, "obj-156", "incdec", "float", 0.0, 5, "obj-153", "number", "int", 0, 5, "obj-152", "number", "int", 0, 5, "obj-172", "slider", "float", 0.0, 5, "obj-171", "dial", "int", 0, 5, "obj-168", "incdec", "float", 0.0, 5, "obj-165", "number", "int", 0, 5, "obj-164", "number", "int", 0 ]
						}
 ]
				}

			}
, 			{
				"box" : 				{
					"maxclass" : "dial",
					"numinlets" : 1,
					"id" : "obj-135",
					"patching_rect" : [ 375.0, 478.0, 40.0, 40.0 ],
					"numoutlets" : 1,
					"outlettype" : [ "float" ]
				}

			}
, 			{
				"box" : 				{
					"maxclass" : "slider",
					"numinlets" : 1,
					"id" : "obj-136",
					"patching_rect" : [ 482.0, 480.0, 78.0, 22.0 ],
					"numoutlets" : 1,
					"outlettype" : [ "" ]
				}

			}
, 			{
				"box" : 				{
					"maxclass" : "newobj",
					"text" : "pack 0 0",
					"fontsize" : 12.0,
					"numinlets" : 2,
					"id" : "obj-137",
					"patching_rect" : [ 491.0, 548.0, 56.0, 20.0 ],
					"numoutlets" : 1,
					"outlettype" : [ "" ],
					"fontname" : "Arial"
				}

			}
, 			{
				"box" : 				{
					"maxclass" : "newobj",
					"text" : "pack 0 0",
					"fontsize" : 12.0,
					"numinlets" : 2,
					"id" : "obj-138",
					"patching_rect" : [ 426.0, 548.0, 56.0, 20.0 ],
					"numoutlets" : 1,
					"outlettype" : [ "" ],
					"fontname" : "Arial"
				}

			}
, 			{
				"box" : 				{
					"maxclass" : "newobj",
					"text" : "unpack 0 0 0 0",
					"fontsize" : 12.0,
					"numinlets" : 1,
					"id" : "obj-139",
					"patching_rect" : [ 426.0, 507.0, 89.0, 20.0 ],
					"numoutlets" : 4,
					"outlettype" : [ "int", "int", "int", "int" ],
					"fontname" : "Arial"
				}

			}
, 			{
				"box" : 				{
					"maxclass" : "number",
					"fontsize" : 12.0,
					"numinlets" : 1,
					"id" : "obj-126",
					"patching_rect" : [ 65.0, 551.0, 50.0, 20.0 ],
					"numoutlets" : 2,
					"outlettype" : [ "int", "bang" ],
					"fontname" : "Arial"
				}

			}
, 			{
				"box" : 				{
					"maxclass" : "number",
					"fontsize" : 12.0,
					"numinlets" : 1,
					"id" : "obj-124",
					"patching_rect" : [ 65.0, 528.0, 50.0, 20.0 ],
					"numoutlets" : 2,
					"outlettype" : [ "int", "bang" ],
					"fontname" : "Arial"
				}

			}
, 			{
				"box" : 				{
					"maxclass" : "scope~",
					"numinlets" : 2,
					"id" : "obj-123",
					"patching_rect" : [ 65.0, 575.0, 100.0, 95.0 ],
					"numoutlets" : 0
				}

			}
, 			{
				"box" : 				{
					"maxclass" : "jit.fpsgui",
					"fontsize" : 12.0,
					"numinlets" : 1,
					"id" : "obj-122",
					"patching_rect" : [ 178.0, 575.0, 67.0, 36.0 ],
					"numoutlets" : 2,
					"outlettype" : [ "", "" ],
					"fontname" : "Arial"
				}

			}
, 			{
				"box" : 				{
					"maxclass" : "incdec",
					"numinlets" : 1,
					"id" : "obj-121",
					"patching_rect" : [ 146.0, 481.0, 20.0, 20.0 ],
					"numoutlets" : 1,
					"outlettype" : [ "float" ]
				}

			}
, 			{
				"box" : 				{
					"maxclass" : "button",
					"numinlets" : 1,
					"id" : "obj-120",
					"patching_rect" : [ 120.0, 481.0, 20.0, 20.0 ],
					"numoutlets" : 1,
					"outlettype" : [ "bang" ]
				}

			}
, 			{
				"box" : 				{
					"maxclass" : "preset",
					"numinlets" : 1,
					"id" : "obj-119",
					"patching_rect" : [ 176.0, 614.0, 68.0, 45.0 ],
					"numoutlets" : 4,
					"outlettype" : [ "preset", "int", "preset", "int" ]
				}

			}
, 			{
				"box" : 				{
					"maxclass" : "dial",
					"numinlets" : 1,
					"id" : "obj-105",
					"patching_rect" : [ 65.0, 479.0, 40.0, 40.0 ],
					"numoutlets" : 1,
					"outlettype" : [ "float" ]
				}

			}
, 			{
				"box" : 				{
					"maxclass" : "slider",
					"numinlets" : 1,
					"id" : "obj-97",
					"patching_rect" : [ 172.0, 481.0, 78.0, 22.0 ],
					"numoutlets" : 1,
					"outlettype" : [ "" ]
				}

			}
, 			{
				"box" : 				{
					"maxclass" : "comment",
					"text" : "It was also chosen because it doesn't compete with the default colors of the new Max5 objects.  Preserving the default values of the Max5 Objects means less headaches for people who copy and paste from our help patches.",
					"linecount" : 6,
					"fontsize" : 14.0,
					"numinlets" : 1,
					"id" : "obj-95",
					"frgb" : [ 1.0, 1.0, 1.0, 1.0 ],
					"patching_rect" : [ 661.0, 725.0, 269.0, 104.0 ],
					"numoutlets" : 0,
					"textcolor" : [ 1.0, 1.0, 1.0, 1.0 ],
					"fontname" : "Trebuchet MS"
				}

			}
, 			{
				"box" : 				{
					"maxclass" : "comment",
					"text" : "This particular set of colors is a compromise between something bright and natural and a straight black / monochromatic theme (which might be more ideal night use).  The greens reference nature and the outdoors (where we usually project).  The dark blues reference the night sky.",
					"linecount" : 7,
					"fontsize" : 14.0,
					"numinlets" : 1,
					"id" : "obj-94",
					"frgb" : [ 0.584314, 0.584314, 0.584314, 1.0 ],
					"patching_rect" : [ 23.0, 726.0, 295.0, 120.0 ],
					"numoutlets" : 0,
					"textcolor" : [ 0.584314, 0.584314, 0.584314, 1.0 ],
					"fontname" : "Trebuchet MS"
				}

			}
, 			{
				"box" : 				{
					"maxclass" : "newobj",
					"text" : "pack 0 0",
					"fontsize" : 12.0,
					"numinlets" : 2,
					"id" : "obj-59",
					"patching_rect" : [ 181.0, 549.0, 56.0, 20.0 ],
					"numoutlets" : 1,
					"outlettype" : [ "" ],
					"fontname" : "Arial"
				}

			}
, 			{
				"box" : 				{
					"maxclass" : "newobj",
					"text" : "pack 0 0",
					"fontsize" : 12.0,
					"numinlets" : 2,
					"id" : "obj-58",
					"patching_rect" : [ 116.0, 549.0, 56.0, 20.0 ],
					"numoutlets" : 1,
					"outlettype" : [ "" ],
					"fontname" : "Arial"
				}

			}
, 			{
				"box" : 				{
					"maxclass" : "newobj",
					"text" : "unpack 0 0 0 0",
					"fontsize" : 12.0,
					"numinlets" : 1,
					"id" : "obj-57",
					"patching_rect" : [ 116.0, 508.0, 89.0, 20.0 ],
					"numoutlets" : 4,
					"outlettype" : [ "int", "int", "int", "int" ],
					"fontname" : "Arial"
				}

			}
, 			{
				"box" : 				{
					"maxclass" : "comment",
					"text" : "12 Point Trebuchet MS",
					"fontsize" : 14.0,
					"numinlets" : 1,
					"id" : "obj-46",
					"frgb" : [ 0.584314, 0.584314, 0.584314, 1.0 ],
					"patching_rect" : [ 1309.0, 451.0, 189.0, 23.0 ],
					"numoutlets" : 0,
					"textcolor" : [ 0.584314, 0.584314, 0.584314, 1.0 ],
					"fontname" : "Trebuchet MS"
				}

			}
, 			{
				"box" : 				{
					"maxclass" : "comment",
					"text" : "36 Point Georgia",
					"fontsize" : 36.0,
					"numinlets" : 1,
					"id" : "obj-47",
					"frgb" : [ 0.584314, 0.584314, 0.584314, 1.0 ],
					"patching_rect" : [ 1280.0, 409.0, 276.0, 47.0 ],
					"numoutlets" : 0,
					"textcolor" : [ 0.584314, 0.584314, 0.584314, 1.0 ],
					"fontname" : "Georgia"
				}

			}
, 			{
				"box" : 				{
					"maxclass" : "comment",
					"text" : "12 Point Trebuchet MS",
					"fontsize" : 14.0,
					"numinlets" : 1,
					"id" : "obj-48",
					"frgb" : [ 0.258824, 0.294118, 0.34902, 1.0 ],
					"patching_rect" : [ 1307.0, 382.0, 189.0, 23.0 ],
					"numoutlets" : 0,
					"textcolor" : [ 0.258824, 0.294118, 0.34902, 1.0 ],
					"fontname" : "Trebuchet MS"
				}

			}
, 			{
				"box" : 				{
					"maxclass" : "comment",
					"text" : "36 Point Georgia",
					"fontsize" : 36.0,
					"numinlets" : 1,
					"id" : "obj-49",
					"frgb" : [ 0.258824, 0.294118, 0.34902, 1.0 ],
					"patching_rect" : [ 1278.0, 340.0, 276.0, 47.0 ],
					"numoutlets" : 0,
					"textcolor" : [ 0.258824, 0.294118, 0.34902, 1.0 ],
					"fontname" : "Georgia"
				}

			}
, 			{
				"box" : 				{
					"maxclass" : "comment",
					"text" : "12 Point Trebuchet MS",
					"fontsize" : 14.0,
					"numinlets" : 1,
					"id" : "obj-50",
					"frgb" : [ 0.470588, 0.54902, 0.239216, 1.0 ],
					"patching_rect" : [ 1304.0, 309.0, 189.0, 23.0 ],
					"numoutlets" : 0,
					"textcolor" : [ 0.470588, 0.54902, 0.239216, 1.0 ],
					"fontname" : "Trebuchet MS"
				}

			}
, 			{
				"box" : 				{
					"maxclass" : "comment",
					"text" : "36 Point Georgia",
					"fontsize" : 36.0,
					"numinlets" : 1,
					"id" : "obj-51",
					"frgb" : [ 0.470588, 0.54902, 0.239216, 1.0 ],
					"patching_rect" : [ 1276.0, 267.0, 276.0, 47.0 ],
					"numoutlets" : 0,
					"textcolor" : [ 0.470588, 0.54902, 0.239216, 1.0 ],
					"fontname" : "Georgia"
				}

			}
, 			{
				"box" : 				{
					"maxclass" : "comment",
					"text" : "12 Point Trebuchet MS",
					"fontsize" : 14.0,
					"numinlets" : 1,
					"id" : "obj-52",
					"frgb" : [ 1.0, 1.0, 1.0, 1.0 ],
					"patching_rect" : [ 1306.0, 242.0, 189.0, 23.0 ],
					"numoutlets" : 0,
					"textcolor" : [ 1.0, 1.0, 1.0, 1.0 ],
					"fontname" : "Trebuchet MS"
				}

			}
, 			{
				"box" : 				{
					"maxclass" : "comment",
					"text" : "36 Point Georgia",
					"fontsize" : 36.0,
					"numinlets" : 1,
					"id" : "obj-53",
					"frgb" : [ 1.0, 1.0, 1.0, 1.0 ],
					"patching_rect" : [ 1278.0, 200.0, 276.0, 47.0 ],
					"numoutlets" : 0,
					"textcolor" : [ 1.0, 1.0, 1.0, 1.0 ],
					"fontname" : "Georgia"
				}

			}
, 			{
				"box" : 				{
					"maxclass" : "newobj",
					"text" : "bgcolor 0.15 0.15 0.13",
					"fontsize" : 12.0,
					"hidden" : 1,
					"numinlets" : 4,
					"id" : "obj-45",
					"patching_rect" : [ 737.0, 846.099976, 130.0, 20.0 ],
					"numoutlets" : 0,
					"fontname" : "Arial"
				}

			}
, 			{
				"box" : 				{
					"maxclass" : "panel",
					"numinlets" : 1,
					"id" : "obj-44",
					"bgcolor" : [ 0.14902, 0.14902, 0.129412, 1.0 ],
					"patching_rect" : [ 1257.0, 19.0, 339.0, 700.0 ],
					"numoutlets" : 0,
					"rounded" : 36
				}

			}
, 			{
				"box" : 				{
					"maxclass" : "comment",
					"text" : "12 Point Trebuchet MS",
					"fontsize" : 14.0,
					"numinlets" : 1,
					"id" : "obj-36",
					"frgb" : [ 0.584314, 0.584314, 0.584314, 1.0 ],
					"patching_rect" : [ 986.0, 448.0, 189.0, 23.0 ],
					"numoutlets" : 0,
					"textcolor" : [ 0.584314, 0.584314, 0.584314, 1.0 ],
					"fontname" : "Trebuchet MS"
				}

			}
, 			{
				"box" : 				{
					"maxclass" : "comment",
					"text" : "36 Point Georgia",
					"fontsize" : 36.0,
					"numinlets" : 1,
					"id" : "obj-37",
					"frgb" : [ 0.584314, 0.584314, 0.584314, 1.0 ],
					"patching_rect" : [ 957.0, 406.0, 276.0, 47.0 ],
					"numoutlets" : 0,
					"textcolor" : [ 0.584314, 0.584314, 0.584314, 1.0 ],
					"fontname" : "Georgia"
				}

			}
, 			{
				"box" : 				{
					"maxclass" : "comment",
					"text" : "12 Point Trebuchet MS",
					"fontsize" : 14.0,
					"numinlets" : 1,
					"id" : "obj-38",
					"frgb" : [ 0.584314, 0.584314, 0.584314, 1.0 ],
					"patching_rect" : [ 682.0, 449.0, 189.0, 23.0 ],
					"numoutlets" : 0,
					"textcolor" : [ 0.584314, 0.584314, 0.584314, 1.0 ],
					"fontname" : "Trebuchet MS"
				}

			}
, 			{
				"box" : 				{
					"maxclass" : "comment",
					"text" : "36 Point Georgia",
					"fontsize" : 36.0,
					"numinlets" : 1,
					"id" : "obj-39",
					"frgb" : [ 0.584314, 0.584314, 0.584314, 1.0 ],
					"patching_rect" : [ 654.0, 407.0, 276.0, 47.0 ],
					"numoutlets" : 0,
					"textcolor" : [ 0.584314, 0.584314, 0.584314, 1.0 ],
					"fontname" : "Georgia"
				}

			}
, 			{
				"box" : 				{
					"maxclass" : "comment",
					"text" : "12 Point Trebuchet MS",
					"fontsize" : 14.0,
					"numinlets" : 1,
					"id" : "obj-42",
					"frgb" : [ 0.584314, 0.584314, 0.584314, 1.0 ],
					"patching_rect" : [ 57.0, 447.0, 189.0, 23.0 ],
					"numoutlets" : 0,
					"textcolor" : [ 0.584314, 0.584314, 0.584314, 1.0 ],
					"fontname" : "Trebuchet MS"
				}

			}
, 			{
				"box" : 				{
					"maxclass" : "comment",
					"text" : "36 Point Georgia",
					"fontsize" : 36.0,
					"numinlets" : 1,
					"id" : "obj-43",
					"frgb" : [ 0.584314, 0.584314, 0.584314, 1.0 ],
					"patching_rect" : [ 29.0, 405.0, 276.0, 47.0 ],
					"numoutlets" : 0,
					"textcolor" : [ 0.584314, 0.584314, 0.584314, 1.0 ],
					"fontname" : "Georgia"
				}

			}
, 			{
				"box" : 				{
					"maxclass" : "comment",
					"text" : "12 Point Trebuchet MS",
					"fontsize" : 14.0,
					"numinlets" : 1,
					"id" : "obj-30",
					"frgb" : [ 0.470588, 0.54902, 0.239216, 1.0 ],
					"patching_rect" : [ 981.0, 306.0, 189.0, 23.0 ],
					"numoutlets" : 0,
					"textcolor" : [ 0.470588, 0.54902, 0.239216, 1.0 ],
					"fontname" : "Trebuchet MS"
				}

			}
, 			{
				"box" : 				{
					"maxclass" : "comment",
					"text" : "36 Point Georgia",
					"fontsize" : 36.0,
					"numinlets" : 1,
					"id" : "obj-31",
					"frgb" : [ 0.470588, 0.54902, 0.239216, 1.0 ],
					"patching_rect" : [ 953.0, 264.0, 276.0, 47.0 ],
					"numoutlets" : 0,
					"textcolor" : [ 0.470588, 0.54902, 0.239216, 1.0 ],
					"fontname" : "Georgia"
				}

			}
, 			{
				"box" : 				{
					"maxclass" : "comment",
					"text" : "12 Point Trebuchet MS",
					"fontsize" : 14.0,
					"numinlets" : 1,
					"id" : "obj-32",
					"frgb" : [ 1.0, 1.0, 1.0, 1.0 ],
					"patching_rect" : [ 983.0, 239.0, 189.0, 23.0 ],
					"numoutlets" : 0,
					"textcolor" : [ 1.0, 1.0, 1.0, 1.0 ],
					"fontname" : "Trebuchet MS"
				}

			}
, 			{
				"box" : 				{
					"maxclass" : "comment",
					"text" : "36 Point Georgia",
					"fontsize" : 36.0,
					"numinlets" : 1,
					"id" : "obj-33",
					"frgb" : [ 1.0, 1.0, 1.0, 1.0 ],
					"patching_rect" : [ 955.0, 197.0, 276.0, 47.0 ],
					"numoutlets" : 0,
					"textcolor" : [ 1.0, 1.0, 1.0, 1.0 ],
					"fontname" : "Georgia"
				}

			}
, 			{
				"box" : 				{
					"maxclass" : "comment",
					"text" : "12 Point Trebuchet MS",
					"fontsize" : 14.0,
					"numinlets" : 1,
					"id" : "obj-20",
					"frgb" : [ 0.258824, 0.294118, 0.34902, 1.0 ],
					"patching_rect" : [ 680.0, 380.0, 189.0, 23.0 ],
					"numoutlets" : 0,
					"textcolor" : [ 0.258824, 0.294118, 0.34902, 1.0 ],
					"fontname" : "Trebuchet MS"
				}

			}
, 			{
				"box" : 				{
					"maxclass" : "comment",
					"text" : "36 Point Georgia",
					"fontsize" : 36.0,
					"numinlets" : 1,
					"id" : "obj-21",
					"frgb" : [ 0.258824, 0.294118, 0.34902, 1.0 ],
					"patching_rect" : [ 652.0, 338.0, 276.0, 47.0 ],
					"numoutlets" : 0,
					"textcolor" : [ 0.258824, 0.294118, 0.34902, 1.0 ],
					"fontname" : "Georgia"
				}

			}
, 			{
				"box" : 				{
					"maxclass" : "comment",
					"text" : "12 Point Trebuchet MS",
					"fontsize" : 14.0,
					"numinlets" : 1,
					"id" : "obj-22",
					"frgb" : [ 0.470588, 0.54902, 0.239216, 1.0 ],
					"patching_rect" : [ 678.0, 307.0, 189.0, 23.0 ],
					"numoutlets" : 0,
					"textcolor" : [ 0.470588, 0.54902, 0.239216, 1.0 ],
					"fontname" : "Trebuchet MS"
				}

			}
, 			{
				"box" : 				{
					"maxclass" : "comment",
					"text" : "36 Point Georgia",
					"fontsize" : 36.0,
					"numinlets" : 1,
					"id" : "obj-23",
					"frgb" : [ 0.470588, 0.54902, 0.239216, 1.0 ],
					"patching_rect" : [ 650.0, 265.0, 276.0, 47.0 ],
					"numoutlets" : 0,
					"textcolor" : [ 0.470588, 0.54902, 0.239216, 1.0 ],
					"fontname" : "Georgia"
				}

			}
, 			{
				"box" : 				{
					"maxclass" : "comment",
					"text" : "12 Point Trebuchet MS",
					"fontsize" : 14.0,
					"numinlets" : 1,
					"id" : "obj-24",
					"frgb" : [ 1.0, 1.0, 1.0, 1.0 ],
					"patching_rect" : [ 680.0, 240.0, 189.0, 23.0 ],
					"numoutlets" : 0,
					"textcolor" : [ 1.0, 1.0, 1.0, 1.0 ],
					"fontname" : "Trebuchet MS"
				}

			}
, 			{
				"box" : 				{
					"maxclass" : "comment",
					"text" : "36 Point Georgia",
					"fontsize" : 36.0,
					"numinlets" : 1,
					"id" : "obj-25",
					"frgb" : [ 1.0, 1.0, 1.0, 1.0 ],
					"patching_rect" : [ 652.0, 198.0, 276.0, 47.0 ],
					"numoutlets" : 0,
					"textcolor" : [ 1.0, 1.0, 1.0, 1.0 ],
					"fontname" : "Georgia"
				}

			}
, 			{
				"box" : 				{
					"maxclass" : "comment",
					"text" : "12 Point Trebuchet MS",
					"fontsize" : 14.0,
					"numinlets" : 1,
					"id" : "obj-12",
					"frgb" : [ 0.258824, 0.294118, 0.34902, 1.0 ],
					"patching_rect" : [ 366.0, 382.0, 189.0, 23.0 ],
					"numoutlets" : 0,
					"textcolor" : [ 0.258824, 0.294118, 0.34902, 1.0 ],
					"fontname" : "Trebuchet MS"
				}

			}
, 			{
				"box" : 				{
					"maxclass" : "comment",
					"text" : "36 Point Georgia",
					"fontsize" : 36.0,
					"numinlets" : 1,
					"id" : "obj-13",
					"frgb" : [ 0.258824, 0.294118, 0.34902, 1.0 ],
					"patching_rect" : [ 338.0, 340.0, 276.0, 47.0 ],
					"numoutlets" : 0,
					"textcolor" : [ 0.258824, 0.294118, 0.34902, 1.0 ],
					"fontname" : "Georgia"
				}

			}
, 			{
				"box" : 				{
					"maxclass" : "comment",
					"text" : "12 Point Trebuchet MS",
					"fontsize" : 14.0,
					"numinlets" : 1,
					"id" : "obj-14",
					"frgb" : [ 0.470588, 0.54902, 0.239216, 1.0 ],
					"patching_rect" : [ 364.0, 309.0, 189.0, 23.0 ],
					"numoutlets" : 0,
					"textcolor" : [ 0.470588, 0.54902, 0.239216, 1.0 ],
					"fontname" : "Trebuchet MS"
				}

			}
, 			{
				"box" : 				{
					"maxclass" : "comment",
					"text" : "36 Point Georgia",
					"fontsize" : 36.0,
					"numinlets" : 1,
					"id" : "obj-15",
					"frgb" : [ 0.470588, 0.54902, 0.239216, 1.0 ],
					"patching_rect" : [ 336.0, 267.0, 276.0, 47.0 ],
					"numoutlets" : 0,
					"textcolor" : [ 0.470588, 0.54902, 0.239216, 1.0 ],
					"fontname" : "Georgia"
				}

			}
, 			{
				"box" : 				{
					"maxclass" : "comment",
					"text" : "12 Point Trebuchet MS",
					"fontsize" : 14.0,
					"numinlets" : 1,
					"id" : "obj-16",
					"frgb" : [ 1.0, 1.0, 1.0, 1.0 ],
					"patching_rect" : [ 365.0, 242.0, 189.0, 23.0 ],
					"numoutlets" : 0,
					"textcolor" : [ 1.0, 1.0, 1.0, 1.0 ],
					"fontname" : "Trebuchet MS"
				}

			}
, 			{
				"box" : 				{
					"maxclass" : "comment",
					"text" : "36 Point Georgia",
					"fontsize" : 36.0,
					"numinlets" : 1,
					"id" : "obj-17",
					"frgb" : [ 1.0, 1.0, 1.0, 1.0 ],
					"patching_rect" : [ 340.0, 186.0, 276.0, 47.0 ],
					"numoutlets" : 0,
					"textcolor" : [ 1.0, 1.0, 1.0, 1.0 ],
					"fontname" : "Georgia"
				}

			}
, 			{
				"box" : 				{
					"maxclass" : "comment",
					"text" : "12 Point Trebuchet MS",
					"fontsize" : 14.0,
					"numinlets" : 1,
					"id" : "obj-8",
					"frgb" : [ 0.470588, 0.54902, 0.239216, 1.0 ],
					"patching_rect" : [ 53.0, 305.0, 189.0, 23.0 ],
					"numoutlets" : 0,
					"textcolor" : [ 0.470588, 0.54902, 0.239216, 1.0 ],
					"fontname" : "Trebuchet MS"
				}

			}
, 			{
				"box" : 				{
					"maxclass" : "comment",
					"text" : "36 Point Georgia",
					"fontsize" : 36.0,
					"numinlets" : 1,
					"id" : "obj-9",
					"frgb" : [ 0.470588, 0.54902, 0.239216, 1.0 ],
					"patching_rect" : [ 25.0, 263.0, 276.0, 47.0 ],
					"numoutlets" : 0,
					"textcolor" : [ 0.470588, 0.54902, 0.239216, 1.0 ],
					"fontname" : "Georgia"
				}

			}
, 			{
				"box" : 				{
					"maxclass" : "comment",
					"text" : "12 Point Trebuchet MS",
					"fontsize" : 14.0,
					"numinlets" : 1,
					"id" : "obj-6",
					"frgb" : [ 1.0, 1.0, 1.0, 1.0 ],
					"patching_rect" : [ 55.0, 238.0, 189.0, 23.0 ],
					"numoutlets" : 0,
					"textcolor" : [ 1.0, 1.0, 1.0, 1.0 ],
					"fontname" : "Trebuchet MS"
				}

			}
, 			{
				"box" : 				{
					"maxclass" : "comment",
					"text" : "36 Point Georgia",
					"fontsize" : 36.0,
					"numinlets" : 1,
					"id" : "obj-7",
					"frgb" : [ 1.0, 1.0, 1.0, 1.0 ],
					"patching_rect" : [ 27.0, 196.0, 276.0, 47.0 ],
					"numoutlets" : 0,
					"textcolor" : [ 1.0, 1.0, 1.0, 1.0 ],
					"fontname" : "Georgia"
				}

			}
, 			{
				"box" : 				{
					"maxclass" : "panel",
					"numinlets" : 1,
					"id" : "obj-5",
					"bgcolor" : [ 0.258824, 0.294118, 0.34902, 1.0 ],
					"patching_rect" : [ 946.0, 19.0, 339.0, 700.0 ],
					"numoutlets" : 0,
					"rounded" : 36
				}

			}
, 			{
				"box" : 				{
					"maxclass" : "panel",
					"numinlets" : 1,
					"id" : "obj-4",
					"bgcolor" : [ 0.113725, 0.12549, 0.207843, 1.0 ],
					"patching_rect" : [ 635.0, 19.0, 339.0, 700.0 ],
					"numoutlets" : 0,
					"rounded" : 36
				}

			}
, 			{
				"box" : 				{
					"maxclass" : "panel",
					"numinlets" : 1,
					"id" : "obj-3",
					"bgcolor" : [ 0.470588, 0.54902, 0.239216, 1.0 ],
					"patching_rect" : [ 326.0, 19.0, 339.0, 700.0 ],
					"numoutlets" : 0,
					"rounded" : 36
				}

			}
, 			{
				"box" : 				{
					"maxclass" : "panel",
					"numinlets" : 1,
					"id" : "obj-2",
					"bgcolor" : [ 0.32549, 0.34902, 0.258824, 1.0 ],
					"patching_rect" : [ 14.0, 18.0, 339.0, 700.0 ],
					"numoutlets" : 0,
					"rounded" : 36
				}

			}
 ],
		"lines" : [ 			{
				"patchline" : 				{
					"source" : [ "obj-57", 0 ],
					"destination" : [ "obj-58", 0 ],
					"hidden" : 0,
					"midpoints" : [ 125.5, 529.0, 125.5, 529.0 ]
				}

			}
, 			{
				"patchline" : 				{
					"source" : [ "obj-57", 1 ],
					"destination" : [ "obj-58", 1 ],
					"hidden" : 0,
					"midpoints" : [ 148.833328, 544.0, 162.5, 544.0 ]
				}

			}
, 			{
				"patchline" : 				{
					"source" : [ "obj-57", 2 ],
					"destination" : [ "obj-59", 0 ],
					"hidden" : 0,
					"midpoints" : [ 172.166672, 541.0, 190.5, 541.0 ]
				}

			}
, 			{
				"patchline" : 				{
					"source" : [ "obj-57", 3 ],
					"destination" : [ "obj-59", 1 ],
					"hidden" : 0,
					"midpoints" : [ 195.5, 529.0, 227.5, 529.0 ]
				}

			}
, 			{
				"patchline" : 				{
					"source" : [ "obj-139", 3 ],
					"destination" : [ "obj-137", 1 ],
					"hidden" : 0,
					"midpoints" : [ 505.5, 528.0, 537.5, 528.0 ]
				}

			}
, 			{
				"patchline" : 				{
					"source" : [ "obj-139", 2 ],
					"destination" : [ "obj-137", 0 ],
					"hidden" : 0,
					"midpoints" : [ 482.166656, 540.0, 500.5, 540.0 ]
				}

			}
, 			{
				"patchline" : 				{
					"source" : [ "obj-139", 1 ],
					"destination" : [ "obj-138", 1 ],
					"hidden" : 0,
					"midpoints" : [ 458.833344, 543.0, 472.5, 543.0 ]
				}

			}
, 			{
				"patchline" : 				{
					"source" : [ "obj-139", 0 ],
					"destination" : [ "obj-138", 0 ],
					"hidden" : 0,
					"midpoints" : [ 435.5, 528.0, 435.5, 528.0 ]
				}

			}
, 			{
				"patchline" : 				{
					"source" : [ "obj-151", 0 ],
					"destination" : [ "obj-150", 0 ],
					"hidden" : 0,
					"midpoints" : [ 757.5, 530.0, 757.5, 530.0 ]
				}

			}
, 			{
				"patchline" : 				{
					"source" : [ "obj-151", 1 ],
					"destination" : [ "obj-150", 1 ],
					"hidden" : 0,
					"midpoints" : [ 780.833313, 545.0, 794.5, 545.0 ]
				}

			}
, 			{
				"patchline" : 				{
					"source" : [ "obj-151", 2 ],
					"destination" : [ "obj-149", 0 ],
					"hidden" : 0,
					"midpoints" : [ 804.166687, 542.0, 822.5, 542.0 ]
				}

			}
, 			{
				"patchline" : 				{
					"source" : [ "obj-151", 3 ],
					"destination" : [ "obj-149", 1 ],
					"hidden" : 0,
					"midpoints" : [ 827.5, 530.0, 859.5, 530.0 ]
				}

			}
, 			{
				"patchline" : 				{
					"source" : [ "obj-163", 3 ],
					"destination" : [ "obj-161", 1 ],
					"hidden" : 0,
					"midpoints" : [ 1135.5, 532.0, 1167.5, 532.0 ]
				}

			}
, 			{
				"patchline" : 				{
					"source" : [ "obj-163", 2 ],
					"destination" : [ "obj-161", 0 ],
					"hidden" : 0,
					"midpoints" : [ 1112.166626, 544.0, 1130.5, 544.0 ]
				}

			}
, 			{
				"patchline" : 				{
					"source" : [ "obj-163", 1 ],
					"destination" : [ "obj-162", 1 ],
					"hidden" : 0,
					"midpoints" : [ 1088.833374, 547.0, 1102.5, 547.0 ]
				}

			}
, 			{
				"patchline" : 				{
					"source" : [ "obj-163", 0 ],
					"destination" : [ "obj-162", 0 ],
					"hidden" : 0,
					"midpoints" : [ 1065.5, 532.0, 1065.5, 532.0 ]
				}

			}
, 			{
				"patchline" : 				{
					"source" : [ "obj-175", 0 ],
					"destination" : [ "obj-174", 0 ],
					"hidden" : 0,
					"midpoints" : [ 1381.5, 538.0, 1381.5, 538.0 ]
				}

			}
, 			{
				"patchline" : 				{
					"source" : [ "obj-175", 1 ],
					"destination" : [ "obj-174", 1 ],
					"hidden" : 0,
					"midpoints" : [ 1404.833374, 553.0, 1418.5, 553.0 ]
				}

			}
, 			{
				"patchline" : 				{
					"source" : [ "obj-175", 2 ],
					"destination" : [ "obj-173", 0 ],
					"hidden" : 0,
					"midpoints" : [ 1428.166626, 550.0, 1446.5, 550.0 ]
				}

			}
, 			{
				"patchline" : 				{
					"source" : [ "obj-175", 3 ],
					"destination" : [ "obj-173", 1 ],
					"hidden" : 0,
					"midpoints" : [ 1451.5, 538.0, 1483.5, 538.0 ]
				}

			}
 ]
	}

}
